# xmcd CD database file
#
# Track frame offsets:
#	150
#	20973
#	40840
#
# Disc length: 864 seconds
#
# Revision: 0
# Processed by: cddbd v1.5.1PL0 Copyright (c) Steve Scherf et al.
# Submitted via: CDex 1.51
#
DISCID=21035e03
DTITLE=ジムノペディ - スタッカート
DYEAR=2004
DGENRE=Rock
TTITLE0=スタッカート
TTITLE1=低気圧なカルテット
TTITLE2=渚
EXTD=YEAR: 2004
EXTT0=
EXTT1=
EXTT2=
PLAYORDER=
